Coordinates
version=1
nRows=4
nColumns=63
inDegrees=yes

Units are S.I. units (second, meters, Newtons, ...)
If the header above contains a line with 'inDegrees', this indicates whether rotational values are in degrees (yes) or radians (no).

endheader
time	pelvis_tilt	pelvis_list	pelvis_rotation	pelvis_tx	pelvis_ty	pelvis_tz	hip_flexion_r	hip_adduction_r	hip_rotation_r	knee_angle_r	knee_angle_r_beta	ankle_angle_r	subtalar_angle_r	mtp_angle_r	hip_flexion_l	hip_adduction_l	hip_rotation_l	knee_angle_l	knee_angle_l_beta	ankle_angle_l	subtalar_angle_l	mtp_angle_l	L5_S1_Flex_Ext	L5_S1_Lat_Bending	L5_S1_axial_rotation	L4_L5_Flex_Ext	L4_L5_Lat_Bending	L4_L5_axial_rotation	L3_L4_Flex_Ext	L3_L4_Lat_Bending	L3_L4_axial_rotation	L2_L3_Flex_Ext	L2_L3_Lat_Bending	L2_L3_axial_rotation	L1_L2_Flex_Ext	L1_L2_Lat_Bending	L1_L2_axial_rotation	L1_T12_Flex_Ext	L1_T12_Lat_Bending	L1_T12_axial_rotation	Abs_r3	Abs_r2	Abs_r1	Abs_t1	Abs_t2	neck_flexion	neck_bending	neck_rotation	arm_flex_r	arm_add_r	arm_rot_r	elbow_flex_r	pro_sup_r	wrist_flex_r	wrist_dev_r	arm_flex_l	arm_add_l	arm_rot_l	elbow_flex_l	pro_sup_l	wrist_flex_l	wrist_dev_l
     12.45000000	      0.04588062	     -6.80393215	    100.30387737	      0.19595878	      0.76583644	      0.86415811	      5.21617947	     -5.35935554	      1.15057454	     13.50129109	      0.23564198	     39.46586758	      4.34247683	      0.00000000	      3.61802158	      0.90520059	      3.51572021	      9.78396017	      0.17076232	     35.06395011	      0.52235703	      0.00000000	      0.06534113	     -0.22225197	      1.74818914	      0.12134501	     -0.29559512	      1.85745097	      0.10734894	     -0.54038343	      1.85745097	      0.07467838	     -0.54038343	      1.52966550	      0.06067577	     -0.45321621	      1.42040368	      0.03733592	     -0.34426830	      1.31114186	      0.46672516	     -2.51415870	      9.72290356	      0.00000000	      0.00000000	     26.61513065	     -0.37152180	    -10.41819685	    -14.85282856	    -17.16053804	      6.15072903	    120.74375219	     74.84060882	     -5.54579395	      6.02945685	    -16.59614994	    -21.89706743	     -4.45395717	    125.68065611	     81.26120851	    -10.11665831	     -0.66315333
     12.46666667	      0.12764225	     -6.64447179	    100.05152151	      0.19541056	      0.76609818	      0.86435296	      5.18379273	     -5.23539805	      2.06893445	     13.56950161	      0.23683248	     39.48550521	      3.91520297	      0.00000000	      3.37472811	      0.76530083	      2.58237216	      9.72446429	      0.16972392	     35.06731913	      1.38218718	      0.00000000	      0.06841942	     -0.21197815	      1.94059276	      0.12706170	     -0.28193094	      2.06187981	      0.11240626	     -0.51540368	      2.06187981	      0.07819655	     -0.51540368	      1.69801866	      0.06353427	     -0.43226585	      1.57673162	      0.03909485	     -0.32835416	      1.45544457	      0.48871304	     -2.39793928	     10.79299474	      0.00000000	      0.00000000	     26.48177189	     -1.25511386	    -11.84927949	    -15.65652693	    -17.10398528	      5.33587448	    120.68726410	     72.90240492	     -3.47106037	      6.60853219	    -15.93215477	    -21.91191198	     -4.34358367	    126.51221904	     79.40030262	    -10.79891534	      2.28702055
     12.48333333	      0.20978705	     -6.50907900	    100.15926833	      0.19446268	      0.76638161	      0.86443688	      5.13007138	     -5.19043757	      2.17120837	     13.70776027	      0.23924555	     39.59091515	      3.90862074	      0.00000000	      3.18520065	      0.68021010	      2.61887089	      9.74636191	      0.17010611	     34.86383671	      1.52934224	      0.00000000	      0.07504690	     -0.19877883	      1.97355372	      0.13936959	     -0.26437584	      2.09690083	      0.12329455	     -0.48331084	      2.09690083	      0.08577110	     -0.48331084	      1.72685951	      0.06968855	     -0.40534978	      1.60351240	      0.04288180	     -0.30790840	      1.48016529	      0.53605249	     -2.24862583	     10.97631374	      0.00000000	      0.00000000	     26.40239819	     -1.21541583	    -11.95503457	    -16.19327402	    -17.14925447	      5.38015986	    120.61507428	     72.76511805	     -3.29831137	      6.67645519	    -15.71739315	    -21.69921050	     -4.72081073	    126.80142416	     79.27443979	    -10.87821038	      2.38168501
     12.50000000	      0.52552385	     -6.20460784	     99.49906082	      0.19389674	      0.76669562	      0.86432048	      5.14701226	     -4.78558125	      3.46207112	     14.04416342	      0.24511689	     39.51885216	      3.35331193	      0.00000000	      2.59201215	      0.27944374	      1.53121350	      9.37301024	      0.16358989	     34.97727055	      2.32172921	      0.00000000	      0.06883705	     -0.15219870	      2.16058579	      0.12783728	     -0.20242427	      2.29562240	      0.11309238	     -0.37005591	      2.29562240	      0.07867386	     -0.37005591	      1.89051256	      0.06392208	     -0.31036358	      1.75547595	      0.03933349	     -0.23575578	      1.62043934	      0.49169613	     -1.72170209	     12.01652997	      0.00000000	      0.00000000	     26.03426540	     -1.60834384	    -13.10526803	    -16.94465901	    -16.93179940	      4.25045063	    120.34414279	     69.50386838	      0.63876266	      7.81676199	    -15.37626114	    -20.96527783	     -5.13744053	    127.36369593	     78.01899891	    -10.27494522	      5.18974394
